<svg width="48" height="48" viewBox="0 0 48 48" fill="none" xmlns="http://www.w3.org/2000/svg">
<g filter="url(#filter0_d_1_4867)">
<path d="M24 16.25C23.2583 16.25 22.5333 16.4699 21.9166 16.882C21.2999 17.294 20.8193 17.8797 20.5355 18.5649C20.2516 19.2502 20.1774 20.0042 20.3221 20.7316C20.4668 21.459 20.8239 22.1272 21.3483 22.6517C21.8728 23.1761 22.541 23.5333 23.2684 23.6779C23.9958 23.8226 24.7498 23.7484 25.4351 23.4645C26.1203 23.1807 26.706 22.7001 27.118 22.0834C27.5301 21.4667 27.75 20.7417 27.75 20C27.749 19.0058 27.3535 18.0525 26.6505 17.3495C25.9475 16.6465 24.9942 16.251 24 16.25ZM24 22.5C23.5055 22.5 23.0222 22.3534 22.6111 22.0787C22.2 21.804 21.8795 21.4135 21.6903 20.9567C21.5011 20.4999 21.4516 19.9972 21.548 19.5123C21.6445 19.0273 21.8826 18.5819 22.2322 18.2322C22.5819 17.8826 23.0273 17.6445 23.5123 17.548C23.9972 17.4516 24.4999 17.5011 24.9567 17.6903C25.4135 17.8795 25.804 18.2 26.0787 18.6111C26.3534 19.0222 26.5 19.5055 26.5 20C26.5 20.663 26.2366 21.2989 25.7678 21.7678C25.2989 22.2366 24.663 22.5 24 22.5ZM27.75 11.875H20.25C19.0901 11.8762 17.978 12.3376 17.1578 13.1578C16.3376 13.978 15.8762 15.0901 15.875 16.25V23.75C15.8762 24.9099 16.3376 26.022 17.1578 26.8422C17.978 27.6624 19.0901 28.1238 20.25 28.125H27.75C28.9099 28.1238 30.022 27.6624 30.8422 26.8422C31.6624 26.022 32.1238 24.9099 32.125 23.75V16.25C32.1238 15.0901 31.6624 13.978 30.8422 13.1578C30.022 12.3376 28.9099 11.8762 27.75 11.875ZM30.875 23.75C30.875 24.5788 30.5458 25.3737 29.9597 25.9597C29.3737 26.5458 28.5788 26.875 27.75 26.875H20.25C19.4212 26.875 18.6263 26.5458 18.0403 25.9597C17.4542 25.3737 17.125 24.5788 17.125 23.75V16.25C17.125 15.4212 17.4542 14.6263 18.0403 14.0403C18.6263 13.4542 19.4212 13.125 20.25 13.125H27.75C28.5788 13.125 29.3737 13.4542 29.9597 14.0403C30.5458 14.6263 30.875 15.4212 30.875 16.25V23.75ZM29 15.9375C29 16.1229 28.945 16.3042 28.842 16.4583C28.739 16.6125 28.5926 16.7327 28.4213 16.8036C28.25 16.8746 28.0615 16.8932 27.8796 16.857C27.6977 16.8208 27.5307 16.7315 27.3996 16.6004C27.2685 16.4693 27.1792 16.3023 27.143 16.1204C27.1068 15.9385 27.1254 15.75 27.1964 15.5787C27.2673 15.4074 27.3875 15.261 27.5417 15.158C27.6958 15.055 27.8771 15 28.0625 15C28.3111 15 28.5496 15.0988 28.7254 15.2746C28.9012 15.4504 29 15.6889 29 15.9375Z" fill="white"/>
<circle cx="24" cy="20" r="19.5" stroke="white"/>
<circle cx="24" cy="20" r="19.5" stroke="white"/>
<circle cx="24" cy="20" r="19.5" stroke="white"/>
</g>
<defs>
<filter id="filter0_d_1_4867" x="0" y="0" width="48" height="48" filterUnits="userSpaceOnUse" color-interpolation-filters="sRGB">
<feFlood flood-opacity="0" result="BackgroundImageFix"/>
<feColorMatrix in="SourceAlpha" type="matrix" values="0 0 0 0 0 0 0 0 0 0 0 0 0 0 0 0 0 0 127 0" result="hardAlpha"/>
<feOffset dy="4"/>
<feGaussianBlur stdDeviation="2"/>
<feComposite in2="hardAlpha" operator="out"/>
<feColorMatrix type="matrix" values="0 0 0 0 0 0 0 0 0 0 0 0 0 0 0 0 0 0 0.25 0"/>
<feBlend mode="normal" in2="BackgroundImageFix" result="effect1_dropShadow_1_4867"/>
<feBlend mode="normal" in="SourceGraphic" in2="effect1_dropShadow_1_4867" result="shape"/>
</filter>
</defs>
</svg>
