<svg width="23" height="23" viewBox="0 0 23 23" fill="none" xmlns="http://www.w3.org/2000/svg">
<g clip-path="url(#clip0_1_5121)">
<path d="M2.146 3.74597V4.53223H20.3527V3.74597H2.146Z" fill="#FF0000" fill-opacity="0.5"/>
<path d="M11.048 4.92981C10.1812 4.92981 9.46973 5.64135 9.46973 6.50813C9.46973 7.37501 10.1812 8.08646 11.048 8.08646C11.9148 8.08646 12.6206 7.37491 12.6206 6.50813C12.6206 5.64135 11.9149 4.92981 11.048 4.92981Z" fill="#FAFF00"/>
<path d="M11.0479 5.71606C11.4883 5.71606 11.8342 6.0677 11.8342 6.50813C11.8342 6.94857 11.4883 7.29439 11.0479 7.29439C10.6075 7.29439 10.2559 6.94853 10.2559 6.50813C10.2559 6.06774 10.6075 5.71606 11.0479 5.71606Z" fill="#380505" fill-opacity="0.5"/>
<path d="M15.3745 3.35144V4.1377H20.3141V3.35144H15.3745Z" fill="#FAFF00"/>
<path d="M0.388368 2.56074C0.170515 2.5641 -0.00335331 2.74354 4.90961e-05 2.96139V4.52862C-0.00320538 4.74647 0.170761 4.92571 0.388614 4.92897C0.606467 4.93222 0.785759 4.7583 0.789014 4.54045C0.789063 4.5365 0.789063 4.53256 0.789014 4.52862V2.96139C0.792416 2.74354 0.618597 2.5641 0.400695 2.56074C0.396602 2.56064 0.39246 2.56064 0.388368 2.56074Z" fill="#FAFF00"/>
<path d="M1.96649 0.982821C1.74864 0.986174 1.57477 1.16556 1.57817 1.38347V6.10655C1.57551 6.32441 1.74997 6.50325 1.96782 6.50587C2.18568 6.50858 2.36448 6.33407 2.36714 6.11622C2.36719 6.11306 2.36719 6.10976 2.36714 6.1066V1.38352C2.37054 1.16566 2.19672 0.986271 1.97882 0.982869C1.97473 0.98277 1.97059 0.982772 1.96649 0.982821Z" fill="#FAFF00"/>
<path d="M21.7025 2.56074C21.9203 2.5641 22.0942 2.74354 22.0908 2.96139V4.52862C22.094 4.74647 21.9201 4.92571 21.7022 4.92897C21.4843 4.93222 21.3051 4.75821 21.3018 4.54035C21.3018 4.53641 21.3018 4.53256 21.3018 4.52862V2.96139C21.2984 2.74354 21.4722 2.5641 21.6901 2.56074C21.6942 2.56064 21.6983 2.56064 21.7025 2.56074Z" fill="#FAFF00"/>
<path d="M20.1248 0.982821C20.3427 0.986174 20.5165 1.16556 20.5131 1.38347V6.10655C20.5158 6.32441 20.3413 6.50325 20.1235 6.50587C19.9056 6.50858 19.7268 6.33417 19.7242 6.11622C19.7241 6.11306 19.7241 6.10976 19.7242 6.1066V1.38352C19.7208 1.16566 19.8946 0.986271 20.1125 0.982869C20.1166 0.98277 20.1207 0.982772 20.1248 0.982821Z" fill="#FAFF00"/>
<path d="M5.46862 3.54375C5.25294 3.57456 5.10308 3.77442 5.1339 3.99015C5.13597 4.0046 5.13883 4.01885 5.14248 4.033L5.92873 7.38763C5.94476 7.46036 5.98105 7.52698 6.03342 7.57994L8.31644 9.86296L10.6577 20.7888C10.6993 21.0027 10.9063 21.1425 11.1202 21.101C11.2782 21.0703 11.4017 20.9468 11.4323 20.7888L13.7736 9.86296L16.0566 7.57994C16.1091 7.52708 16.1455 7.46031 16.1616 7.38763L16.9537 4.033C17.0056 3.82121 16.876 3.60741 16.6642 3.55548C16.4524 3.50356 16.2386 3.6332 16.1867 3.84498C16.1861 3.8475 16.1855 3.85011 16.1849 3.85258L15.4162 7.10242L13.1331 9.38544C13.0777 9.43919 13.0392 9.50793 13.0225 9.58337L11.0423 18.8203L9.06215 9.58337C9.04702 9.50862 9.01058 9.43988 8.95717 9.38544L6.66834 7.10242L5.91123 3.85258C5.86818 3.64908 5.67449 3.51396 5.46857 3.54379L5.46862 3.54375Z" fill="#FAFF00"/>
<path d="M10.9075 5.86462C11.1627 5.86462 11.3633 6.06862 11.3633 6.3239C11.3633 6.57913 11.1626 6.77972 10.9075 6.77972C10.6522 6.77972 10.4482 6.57913 10.4482 6.3239C10.4482 6.06862 10.6522 5.86462 10.9075 5.86462Z" fill="black"/>
<path d="M1.77637 3.35144V4.1377H13.1397V3.35144H1.77637Z" fill="#FAFF00"/>
<path d="M13.772 3.35144V4.1377H14.8653V3.35144H13.772Z" fill="#FAFF00"/>
</g>
<defs>
<clipPath id="clip0_1_5121">
<rect width="22.0909" height="22.0909" fill="white"/>
</clipPath>
</defs>
</svg>
