<svg width="18" height="18" viewBox="0 0 18 18" fill="none" xmlns="http://www.w3.org/2000/svg">
<path d="M7.83317 10.5L6.02067 8.68752C5.86789 8.53474 5.67678 8.46169 5.44734 8.46835C5.21789 8.47502 5.02706 8.55502 4.87484 8.70835C4.72206 8.86113 4.64567 9.05558 4.64567 9.29169C4.64567 9.5278 4.72206 9.72224 4.87484 9.87502L7.24984 12.25C7.40261 12.4028 7.59706 12.4792 7.83317 12.4792C8.06928 12.4792 8.26373 12.4028 8.4165 12.25L13.1457 7.52085C13.2984 7.36808 13.3715 7.17696 13.3648 6.94752C13.3582 6.71808 13.2782 6.52724 13.1248 6.37502C12.9721 6.22224 12.7776 6.14585 12.5415 6.14585C12.3054 6.14585 12.1109 6.22224 11.9582 6.37502L7.83317 10.5ZM8.99984 17.3334C7.84706 17.3334 6.76373 17.1145 5.74984 16.6767C4.73595 16.2389 3.854 15.6453 3.104 14.8959C2.354 14.1459 1.76039 13.2639 1.32317 12.25C0.885948 11.2361 0.667059 10.1528 0.666504 9.00002C0.666504 7.84724 0.885393 6.76391 1.32317 5.75002C1.76095 4.73613 2.35456 3.85419 3.104 3.10419C3.854 2.35419 4.73595 1.76058 5.74984 1.32335C6.76373 0.886132 7.84706 0.667243 8.99984 0.666687C10.1526 0.666687 11.2359 0.885576 12.2498 1.32335C13.2637 1.76113 14.1457 2.35474 14.8957 3.10419C15.6457 3.85419 16.2396 4.73613 16.6773 5.75002C17.1151 6.76391 17.3337 7.84724 17.3332 9.00002C17.3332 10.1528 17.1143 11.2361 16.6765 12.25C16.2387 13.2639 15.6451 14.1459 14.8957 14.8959C14.1457 15.6459 13.2637 16.2397 12.2498 16.6775C11.2359 17.1153 10.1526 17.3339 8.99984 17.3334ZM8.99984 15.6667C10.8471 15.6667 12.4201 15.0175 13.719 13.7192C15.0179 12.4209 15.6671 10.8478 15.6665 9.00002C15.6665 7.1528 15.0173 5.57974 13.719 4.28085C12.4207 2.98196 10.8476 2.3328 8.99984 2.33335C7.15262 2.33335 5.57956 2.98252 4.28067 4.28085C2.98178 5.57919 2.33262 7.15224 2.33317 9.00002C2.33317 10.8472 2.98234 12.4203 4.28067 13.7192C5.579 15.0181 7.15206 15.6672 8.99984 15.6667Z" fill="white"/>
</svg>
