<svg width="48" height="48" viewBox="0 0 48 48" fill="none" xmlns="http://www.w3.org/2000/svg">
<g filter="url(#filter0_d_1_4869)">
<path d="M33.3272 15.386C33.2799 15.2718 33.1999 15.1742 33.0971 15.1055C32.9943 15.0368 32.8735 15.0001 32.7499 15.0001H30.3725C30.0401 14.4346 29.5671 13.9647 28.9994 13.6362C28.4317 13.3076 27.7886 13.1315 27.1327 13.1251C26.644 13.1187 26.159 13.2101 25.7062 13.3939C25.2534 13.5777 24.8419 13.8502 24.496 14.1954C24.1399 14.5448 23.8573 14.9618 23.6648 15.422C23.4723 15.8822 23.3737 16.3762 23.3749 16.8751V17.3509C20.2296 16.5212 17.6569 13.9626 17.6296 13.9352C17.5457 13.8506 17.4394 13.7918 17.3233 13.7655C17.2071 13.7393 17.0858 13.7469 16.9738 13.7872C16.8617 13.8276 16.7635 13.8992 16.6908 13.9935C16.618 14.0878 16.5738 14.201 16.5632 14.3196C16.2264 18.0532 17.3108 20.5516 18.2819 21.9899C18.7554 22.7009 19.3314 23.338 19.9913 23.8805C18.8014 25.2501 16.928 25.9696 16.9077 25.9774C16.8195 26.0104 16.7399 26.063 16.6749 26.1311C16.6098 26.1992 16.561 26.2811 16.5321 26.3708C16.5032 26.4604 16.4949 26.5554 16.5078 26.6487C16.5208 26.7419 16.5547 26.8311 16.6069 26.9094C16.6655 26.9969 16.8999 27.304 17.4725 27.5907C18.1803 27.9454 19.1155 28.1251 20.2499 28.1251C25.771 28.1251 30.3843 23.8735 30.8553 18.4032L33.1921 16.0673C33.2794 15.9798 33.3389 15.8684 33.363 15.7471C33.387 15.6259 33.3746 15.5002 33.3272 15.386ZM29.8116 17.6837C29.7044 17.7911 29.64 17.9338 29.6303 18.0852C29.3124 23.0141 25.1936 26.8751 20.2499 26.8751C19.4249 26.8751 18.8436 26.7657 18.4358 26.6344C19.335 26.1462 20.5889 25.3063 21.3952 24.0969C21.4425 24.0258 21.4748 23.9458 21.4899 23.8617C21.5051 23.7777 21.5029 23.6914 21.4834 23.6082C21.4639 23.525 21.4276 23.4467 21.3767 23.3782C21.3258 23.3096 21.2614 23.2522 21.1874 23.2094C21.1507 23.1884 17.7569 21.1516 17.7499 15.7094C18.9999 16.7251 21.285 18.3009 23.896 18.7399C23.9855 18.755 24.0771 18.7504 24.1647 18.7265C24.2522 18.7026 24.3335 18.6599 24.4029 18.6014C24.4722 18.5428 24.528 18.4699 24.5664 18.3877C24.6047 18.3054 24.6247 18.2158 24.6249 18.1251V16.8751C24.6242 16.5417 24.6902 16.2115 24.819 15.904C24.9478 15.5965 25.1368 15.3178 25.3749 15.0844C25.6031 14.8558 25.8749 14.6752 26.1741 14.5533C26.4734 14.4315 26.794 14.3709 27.1171 14.3751C28.1061 14.3876 29.0303 14.9907 29.4171 15.8759C29.4658 15.9871 29.5459 16.0818 29.6476 16.1483C29.7494 16.2147 29.8682 16.2501 29.9897 16.2501H31.2397L29.8116 17.6837Z" fill="white"/>
<circle cx="24" cy="20" r="19.5" stroke="white"/>
<circle cx="24" cy="20" r="19.5" stroke="white"/>
<circle cx="24" cy="20" r="19.5" stroke="white"/>
</g>
<defs>
<filter id="filter0_d_1_4869" x="0" y="0" width="48" height="48" filterUnits="userSpaceOnUse" color-interpolation-filters="sRGB">
<feFlood flood-opacity="0" result="BackgroundImageFix"/>
<feColorMatrix in="SourceAlpha" type="matrix" values="0 0 0 0 0 0 0 0 0 0 0 0 0 0 0 0 0 0 127 0" result="hardAlpha"/>
<feOffset dy="4"/>
<feGaussianBlur stdDeviation="2"/>
<feComposite in2="hardAlpha" operator="out"/>
<feColorMatrix type="matrix" values="0 0 0 0 0 0 0 0 0 0 0 0 0 0 0 0 0 0 0.25 0"/>
<feBlend mode="normal" in2="BackgroundImageFix" result="effect1_dropShadow_1_4869"/>
<feBlend mode="normal" in="SourceGraphic" in2="effect1_dropShadow_1_4869" result="shape"/>
</filter>
</defs>
</svg>
