<svg width="48" height="48" viewBox="0 0 48 48" fill="none" xmlns="http://www.w3.org/2000/svg">
<g filter="url(#filter0_d_1_4870)">
<path d="M26.8469 19.4797L23.0969 16.9797C23.0027 16.9169 22.8933 16.8808 22.7802 16.8753C22.6672 16.8699 22.5548 16.8952 22.455 16.9486C22.3552 17.002 22.2718 17.0815 22.2137 17.1786C22.1556 17.2758 22.1249 17.3868 22.125 17.5V22.5C22.1249 22.6132 22.1556 22.7243 22.2137 22.8214C22.2718 22.9185 22.3552 22.998 22.455 23.0514C22.5548 23.1048 22.6672 23.1302 22.7802 23.1247C22.8933 23.1192 23.0027 23.0831 23.0969 23.0203L26.8469 20.5203C26.9326 20.4633 27.0029 20.3859 27.0515 20.2951C27.1002 20.2044 27.1256 20.103 27.1256 20C27.1256 19.897 27.1002 19.7956 27.0515 19.7049C27.0029 19.6141 26.9326 19.5367 26.8469 19.4797ZM23.375 21.332V18.6719L25.3734 20L23.375 21.332ZM32.307 15.4313C32.2334 15.1432 32.0924 14.8769 31.8955 14.6541C31.6987 14.4313 31.4517 14.2585 31.175 14.15C28.4969 13.1156 24.2344 13.125 24 13.125C23.7656 13.125 19.5031 13.1156 16.825 14.15C16.5483 14.2585 16.3013 14.4313 16.1044 14.6541C15.9076 14.8769 15.7666 15.1432 15.693 15.4313C15.4906 16.2109 15.25 17.6359 15.25 20C15.25 22.3641 15.4906 23.7891 15.693 24.5688C15.7665 24.8569 15.9075 25.1234 16.1043 25.3464C16.3011 25.5693 16.5482 25.7422 16.825 25.8508C19.3906 26.8406 23.4062 26.875 23.9484 26.875H24.0516C24.5938 26.875 28.6117 26.8406 31.175 25.8508C31.4518 25.7422 31.6989 25.5693 31.8957 25.3464C32.0925 25.1234 32.2335 24.8569 32.307 24.5688C32.5094 23.7875 32.75 22.3641 32.75 20C32.75 17.6359 32.5094 16.2109 32.307 15.4313ZM31.0969 24.2594C31.0731 24.3552 31.0269 24.4441 30.9621 24.5186C30.8973 24.5932 30.8158 24.6513 30.7242 24.6883C28.2516 25.643 24.0461 25.6258 24.0055 25.6258H24C23.9578 25.6258 19.7555 25.6414 17.2812 24.6883C17.1897 24.6513 17.1081 24.5932 17.0434 24.5186C16.9786 24.4441 16.9324 24.3552 16.9086 24.2594C16.7188 23.5461 16.5 22.232 16.5 20C16.5 17.768 16.7188 16.4539 16.9031 15.7445C16.9265 15.6481 16.9725 15.5586 17.0373 15.4835C17.1021 15.4084 17.1838 15.3498 17.2758 15.3125C19.6602 14.3914 23.6555 14.375 23.9828 14.375H24.0039C24.0461 14.375 28.2523 14.3609 30.7227 15.3125C30.8142 15.3495 30.8958 15.4076 30.9605 15.4822C31.0253 15.5567 31.0715 15.6456 31.0953 15.7414C31.2812 16.4539 31.5 17.768 31.5 20C31.5 22.232 31.2812 23.5461 31.0969 24.2555V24.2594Z" fill="white"/>
<circle cx="24" cy="20" r="19.5" stroke="white"/>
<circle cx="24" cy="20" r="19.5" stroke="white"/>
<circle cx="24" cy="20" r="19.5" stroke="white"/>
</g>
<defs>
<filter id="filter0_d_1_4870" x="0" y="0" width="48" height="48" filterUnits="userSpaceOnUse" color-interpolation-filters="sRGB">
<feFlood flood-opacity="0" result="BackgroundImageFix"/>
<feColorMatrix in="SourceAlpha" type="matrix" values="0 0 0 0 0 0 0 0 0 0 0 0 0 0 0 0 0 0 127 0" result="hardAlpha"/>
<feOffset dy="4"/>
<feGaussianBlur stdDeviation="2"/>
<feComposite in2="hardAlpha" operator="out"/>
<feColorMatrix type="matrix" values="0 0 0 0 0 0 0 0 0 0 0 0 0 0 0 0 0 0 0.25 0"/>
<feBlend mode="normal" in2="BackgroundImageFix" result="effect1_dropShadow_1_4870"/>
<feBlend mode="normal" in="SourceGraphic" in2="effect1_dropShadow_1_4870" result="shape"/>
</filter>
</defs>
</svg>
